# xmcd CD database file
#
# Track frame offsets:
#	150
#	44456
#	66555
#	107720
#	115373
#
# Disc length: 1911 seconds
#
# Revision: 0
# Processed by: cddbd v1.5.1PL2 Copyright (c) Steve Scherf et al.
# Submitted via: CDex 1.51
#
DISCID=48077505
DTITLE=Chick Corea - The Best OF Chick Corea
DYEAR=1900
DGENRE=Jazz
TTITLE0=スペイン
TTITLE1=キャプテン・マーヴェル
TTITLE2=５００マイルズ・ハイ
TTITLE3=マイ・スパニッシュ・ハート
TTITLE4=いつか王子様が
EXTD=
EXTT0=
EXTT1=
EXTT2=
EXTT3=
EXTT4=
PLAYORDER=
